<svg xmlns="http://www.w3.org/2000/svg" width="60" height="60"><g data-name="icon"><path d="M22.046 57.768h-.148l-6.726-3.912q-.208-.118-.208-.355l-.118-37.277q.03-.207.207-.326Q38.018 2.623 38.136 2.623q.119 0 6.875 3.941l.06.06.058.029v.03h.03l.06.118.029 4.504q-.03.237-.207.356L26.165 22.536v3.407q11.912-6.874 12.03-6.874.09 0 3.497 1.985Q45.1 23.01 45.1 23.039h.03v.03q.03.03.03.06h.029q.03 0 .03.029l.029.148h.03v4.445q0 .207-.208.326L26.224 38.98l.03 16.209q0 .207-.207.326-3.853 2.252-4 2.252zm4.149-24.09 17.868-10.313-5.867-3.437-12.001 6.934ZM21.63 56.67l-.088-36.299-5.868-3.437.09 36.329zm.297-37.01L44.003 6.92l-5.867-3.408-22.075 12.742Z" data-name="header" style="fill:#fff;stroke:#fff;stroke-width:.782;stroke-dasharray:none;stroke-opacity:1"/></g></svg>
